<svg width="20" height="8" viewBox="0 0 20 8" fill="none" xmlns="http://www.w3.org/2000/svg">
<path fill-rule="evenodd" clip-rule="evenodd" d="M5.10787 0.25188C5.3557 0.550387 5.31743 0.995645 5.02239 1.24639L2.61296 3.29412H19.3023C19.6876 3.29412 20 3.61015 20 4C20 4.38985 19.6876 4.70588 19.3023 4.70588H2.61296L5.02239 6.75361C5.31743 7.00435 5.3557 7.44961 5.10787 7.74812C4.86004 8.04663 4.41995 8.08535 4.12492 7.8346L0.259288 4.54928C0.240291 4.53372 0.221953 4.51703 0.204371 4.4992C0.146673 4.44097 0.100963 4.37454 0.0675329 4.30334C0.0579955 4.28309 0.0494787 4.26251 0.0419755 4.24167C0.0282145 4.20345 0.0176235 4.1637 0.0105243 4.12273C0.00347285 4.08209 -2.0755e-05 4.04102 9.27505e-08 4C-2.06996e-05 3.95898 0.00347324 3.91791 0.0105247 3.87727C0.0176239 3.8363 0.0282145 3.79655 0.0419756 3.75833C0.0494788 3.73749 0.0579959 3.71691 0.0675333 3.69666C0.100955 3.62547 0.146652 3.55906 0.204329 3.50084C0.221926 3.483 0.240279 3.46628 0.259293 3.45072L4.12492 0.1654C4.41995 -0.0853458 4.86004 -0.0466277 5.10787 0.25188ZM0.233388 4.52688C0.239771 4.53264 0.246259 4.53828 0.25285 4.54381L0.233388 4.52688Z" fill="#36392D"/>
</svg>
