<svg width="20" height="8" viewBox="0 0 20 8" fill="none" xmlns="http://www.w3.org/2000/svg">
<path fill-rule="evenodd" clip-rule="evenodd" d="M14.8407 0.195262C15.1411 -0.0650874 15.6281 -0.0650874 15.9285 0.195262L19.7747 3.5286C19.8484 3.59251 19.9041 3.66618 19.9416 3.74481C19.9745 3.81341 19.9944 3.88779 19.999 3.96569C19.9997 3.97706 20 3.98849 20 4C20 4.09039 19.9792 4.17658 19.9416 4.25519C19.9041 4.33382 19.8484 4.40749 19.7747 4.4714L15.9285 7.80474C15.6281 8.06509 15.1411 8.06509 14.8407 7.80474C14.5403 7.54439 14.5403 7.12228 14.8407 6.86193L17.3737 4.66667H0.769231C0.344396 4.66667 0 4.36819 0 4C0 3.63181 0.344396 3.33333 0.769231 3.33333H17.3737L14.8407 1.13807C14.5403 0.877722 14.5403 0.455612 14.8407 0.195262Z" fill="#36392D"/>
</svg>
