<svg width="40" height="40" viewBox="0 0 40 40" fill="none" xmlns="http://www.w3.org/2000/svg">
<path fill-rule="evenodd" clip-rule="evenodd" d="M3.33333 8.14799C3.33333 7.32979 3.98219 6.6665 4.7826 6.6665H35.2174C36.0178 6.6665 36.6667 7.32979 36.6667 8.14799C36.6667 8.96619 36.0178 9.62947 35.2174 9.62947H4.7826C3.98219 9.62947 3.33333 8.96619 3.33333 8.14799ZM3.33333 19.9998C3.33333 19.1816 3.98219 18.5184 4.7826 18.5184H35.2174C36.0178 18.5184 36.6667 19.1816 36.6667 19.9998C36.6667 20.818 36.0178 21.4813 35.2174 21.4813H4.7826C3.98219 21.4813 3.33333 20.818 3.33333 19.9998ZM3.33333 31.8517C3.33333 31.0335 3.98219 30.3702 4.7826 30.3702H35.2174C36.0178 30.3702 36.6667 31.0335 36.6667 31.8517C36.6667 32.6699 36.0178 33.3332 35.2174 33.3332H4.7826C3.98219 33.3332 3.33333 32.6699 3.33333 31.8517Z" fill="#515643"/>
</svg>
