<svg width="34" height="24" viewBox="0 0 34 24" fill="none" xmlns="http://www.w3.org/2000/svg">
<path d="M13.6667 17.0002L22.3167 12.0002L13.6667 7.00016V17.0002ZM32.9334 3.95016C33.15 4.7335 33.3 5.7835 33.4 7.11683C33.5167 8.45016 33.5667 9.60016 33.5667 10.6002L33.6667 12.0002C33.6667 15.6502 33.4 18.3335 32.9334 20.0502C32.5167 21.5502 31.55 22.5168 30.05 22.9335C29.2667 23.1502 27.8334 23.3002 25.6334 23.4002C23.4667 23.5168 21.4834 23.5668 19.65 23.5668L17 23.6668C10.0167 23.6668 5.66671 23.4002 3.95004 22.9335C2.45004 22.5168 1.48337 21.5502 1.06671 20.0502C0.850041 19.2668 0.700041 18.2168 0.600041 16.8835C0.483374 15.5502 0.433374 14.4002 0.433374 13.4002L0.333374 12.0002C0.333374 8.35016 0.600041 5.66683 1.06671 3.95016C1.48337 2.45016 2.45004 1.4835 3.95004 1.06683C4.73337 0.850163 6.16671 0.700162 8.36671 0.600162C10.5334 0.483496 12.5167 0.433496 14.35 0.433496L17 0.333496C23.9834 0.333496 28.3334 0.600163 30.05 1.06683C31.55 1.4835 32.5167 2.45016 32.9334 3.95016V3.95016Z" fill="#36392D"/>
</svg>
