<svg width="34" height="29" viewBox="0 0 34 29" fill="none" xmlns="http://www.w3.org/2000/svg">
<path d="M33.6667 3.99984C32.4398 4.58317 31.1173 4.9665 29.747 5.14984C31.1492 4.2665 32.2327 2.8665 32.7426 1.18317C31.4201 2.0165 29.9542 2.59984 28.4086 2.93317C27.1498 1.49984 25.3812 0.666504 23.3735 0.666504C19.6291 0.666504 16.5698 3.8665 16.5698 7.8165C16.5698 8.38317 16.6336 8.93317 16.7451 9.44984C11.0727 9.14984 6.02171 6.29984 2.6597 1.98317C2.07015 3.03317 1.73554 4.2665 1.73554 5.5665C1.73554 8.04984 2.93057 10.2498 4.77888 11.4998C3.64759 11.4998 2.59596 11.1665 1.67181 10.6665V10.7165C1.67181 14.1832 4.03 17.0832 7.153 17.7332C6.15034 18.0202 5.09771 18.0601 4.0778 17.8498C4.51057 19.2706 5.35813 20.5139 6.50134 21.4047C7.64455 22.2956 9.02593 22.7893 10.4513 22.8165C8.03514 24.8172 5.04019 25.8987 1.95861 25.8832C1.41687 25.8832 0.87512 25.8498 0.333374 25.7832C3.36078 27.8165 6.9618 28.9998 10.8178 28.9998C23.3735 28.9998 30.2728 18.0998 30.2728 8.64984C30.2728 8.33317 30.2728 8.03317 30.2569 7.7165C31.5953 6.7165 32.7426 5.44984 33.6667 3.99984V3.99984Z" fill="#36392D"/>
</svg>
