<svg width="34" height="34" viewBox="0 0 34 34" fill="none" xmlns="http://www.w3.org/2000/svg">
<path d="M17 0.333496C21.5283 0.333496 22.0933 0.350163 23.87 0.433496C25.645 0.516829 26.8533 0.795163 27.9166 1.2085C29.0166 1.63183 29.9433 2.20516 30.87 3.13016C31.7175 3.96332 32.3732 4.97114 32.7916 6.0835C33.2033 7.14516 33.4833 8.35516 33.5666 10.1302C33.645 11.9068 33.6666 12.4718 33.6666 17.0002C33.6666 21.5285 33.65 22.0935 33.5666 23.8702C33.4833 25.6452 33.2033 26.8535 32.7916 27.9168C32.3744 29.0298 31.7185 30.0379 30.87 30.8702C30.0366 31.7174 29.0288 32.3731 27.9166 32.7918C26.855 33.2035 25.645 33.4835 23.87 33.5668C22.0933 33.6452 21.5283 33.6668 17 33.6668C12.4716 33.6668 11.9066 33.6502 10.13 33.5668C8.35498 33.4835 7.14665 33.2035 6.08331 32.7918C4.97052 32.3743 3.96252 31.7184 3.12998 30.8702C2.28232 30.0371 1.62653 29.0293 1.20831 27.9168C0.79498 26.8552 0.516646 25.6452 0.433313 23.8702C0.35498 22.0935 0.333313 21.5285 0.333313 17.0002C0.333313 12.4718 0.34998 11.9068 0.433313 10.1302C0.516646 8.3535 0.79498 7.14683 1.20831 6.0835C1.62537 4.97046 2.28132 3.96236 3.12998 3.13016C3.96276 2.28221 4.97069 1.62638 6.08331 1.2085C7.14665 0.795163 8.35331 0.516829 10.13 0.433496C11.9066 0.355163 12.4716 0.333496 17 0.333496ZM17 8.66683C14.7898 8.66683 12.6702 9.5448 11.1074 11.1076C9.54462 12.6704 8.66665 14.79 8.66665 17.0002C8.66665 19.2103 9.54462 21.3299 11.1074 22.8927C12.6702 24.4555 14.7898 25.3335 17 25.3335C19.2101 25.3335 21.3297 24.4555 22.8925 22.8927C24.4553 21.3299 25.3333 19.2103 25.3333 17.0002C25.3333 14.79 24.4553 12.6704 22.8925 11.1076C21.3297 9.5448 19.2101 8.66683 17 8.66683V8.66683ZM27.8333 8.25016C27.8333 7.69763 27.6138 7.16772 27.2231 6.77702C26.8324 6.38632 26.3025 6.16683 25.75 6.16683C25.1974 6.16683 24.6675 6.38632 24.2768 6.77702C23.8861 7.16772 23.6666 7.69763 23.6666 8.25016C23.6666 8.8027 23.8861 9.3326 24.2768 9.7233C24.6675 10.114 25.1974 10.3335 25.75 10.3335C26.3025 10.3335 26.8324 10.114 27.2231 9.7233C27.6138 9.3326 27.8333 8.8027 27.8333 8.25016ZM17 12.0002C18.3261 12.0002 19.5978 12.5269 20.5355 13.4646C21.4732 14.4023 22 15.6741 22 17.0002C22 18.3262 21.4732 19.598 20.5355 20.5357C19.5978 21.4734 18.3261 22.0002 17 22.0002C15.6739 22.0002 14.4021 21.4734 13.4644 20.5357C12.5268 19.598 12 18.3262 12 17.0002C12 15.6741 12.5268 14.4023 13.4644 13.4646C14.4021 12.5269 15.6739 12.0002 17 12.0002V12.0002Z" fill="#36392D"/>
</svg>
